<svg xmlns="http://www.w3.org/2000/svg" width="48" height="48" viewBox="0 0 48 48">
  <defs>
    <linearGradient id="bg" x1="0" y1="0" x2="0" y2="1">
      <stop offset="0%" stop-color="#2563eb"/>
      <stop offset="100%" stop-color="#1d4ed8"/>
    </linearGradient>
  </defs>
  <rect width="48" height="48" rx="10" fill="url(#bg)"/>
  <path d="M16 18V14a4 4 0 0 1 4-4h8a4 4 0 0 1 4 4v4h2a3 3 0 0 1 3 3v12a3 3 0 0 1-3 3H14a3 3 0 0 1-3-3V21a3 3 0 0 1 3-3h2zm2-4v4h12v-4a2 2 0 0 0-2-2h-8a2 2 0 0 0-2 2zm-4 6v12h20V20H14zm2 2h4v2h-4v-2zm6 0h4v2h-4v-2z" fill="#fff"/>
</svg>
